<svg width="388" height="472" viewBox="0 0 388 472" fill="none" xmlns="http://www.w3.org/2000/svg">
<path d="M189.946 240H126.97L158.458 171.744L189.946 240ZM132.538 236.448H184.378L158.458 180.192L132.538 236.448ZM203.504 239.904V173.088H207.248L253.904 218.496V173.088H257.456V239.904H203.504ZM158.458 337.44C153.594 337.44 149.082 336.224 144.922 333.792C140.826 331.36 137.562 328.096 135.13 324C132.698 319.84 131.482 315.328 131.482 310.464V269.184H185.434V310.464C185.434 315.328 184.218 319.84 181.786 324C179.354 328.096 176.058 331.36 171.898 333.792C167.802 336.224 163.322 337.44 158.458 337.44ZM227.792 332.448V281.376C225.68 284.64 222.896 287.232 219.44 289.152C216.048 291.072 212.336 292.032 208.304 292.032V288.576C211.824 288.576 215.056 287.712 218 285.984C221.008 284.192 223.376 281.824 225.104 278.88C226.896 275.872 227.792 272.608 227.792 269.088H231.248V332.448H251.408V336H207.632V332.448H227.792Z" fill="white"/>
<path d="M194.441 66.5C220.441 66.5 244.441 73 266.441 86C288.441 98.6667 305.775 116 318.441 138C331.441 160 337.941 184 337.941 210V286C337.941 312 331.441 336 318.441 358C305.775 380 288.441 397.5 266.441 410.5C244.441 423.167 220.441 429.5 194.441 429.5C168.441 429.5 144.441 423.167 122.441 410.5C100.441 397.5 82.9414 380 69.9414 358C57.2747 336 50.9414 312 50.9414 286V210C50.9414 184 57.2747 160 69.9414 138C82.9414 116 100.441 98.6667 122.441 86C144.441 73 168.441 66.5 194.441 66.5ZM69.4414 286C69.4414 308.667 74.9414 329.667 85.9414 349C97.2747 368 112.441 383.167 131.441 394.5C150.775 405.5 171.775 411 194.441 411C217.108 411 237.941 405.5 256.941 394.5C276.275 383.167 291.441 368 302.441 349C313.775 329.667 319.441 308.667 319.441 286V210C319.441 187.333 313.775 166.5 302.441 147.5C291.441 128.167 276.275 113 256.941 102C237.941 90.6667 217.108 85 194.441 85C171.775 85 150.775 90.6667 131.441 102C112.441 113 97.2747 128.167 85.9414 147.5C74.9414 166.5 69.4414 187.333 69.4414 210V286Z" fill="white"/>
</svg>
