<svg xmlns="http://www.w3.org/2000/svg" version="1.1" xmlns:xlink="http://www.w3.org/1999/xlink" xmlns:svgjs="http://svgjs.dev/svgjs" width="1920" height="1080" preserveAspectRatio="none" viewBox="0 0 1920 1080"><g mask="url(&quot;#SvgjsMask1073&quot;)" fill="none"><rect width="1920" height="1080" x="0" y="0" fill="rgba(0, 23, 31, 1)"></rect><path d="M13.91 695.35 a245.89 245.89 0 1 0 491.78 0 a245.89 245.89 0 1 0 -491.78 0z" fill="rgba(0, 32, 43, 1)" class="triangle-float2"></path><path d="M1394.71 344.84 a257.62 257.62 0 1 0 515.24 0 a257.62 257.62 0 1 0 -515.24 0z" fill="rgba(0, 32, 43, 1)" class="triangle-float2"></path><path d="M288.24 152.49 a256.07 256.07 0 1 0 512.14 0 a256.07 256.07 0 1 0 -512.14 0z" fill="rgba(0, 32, 43, 1)" class="triangle-float1"></path><path d="M932.44 1046.46 a333.35 333.35 0 1 0 666.7 0 a333.35 333.35 0 1 0 -666.7 0z" fill="rgba(0, 32, 43, 1)" class="triangle-float1"></path></g><defs><mask id="SvgjsMask1073"><rect width="1920" height="1080" fill="#ffffff"></rect></mask><style>
                @keyframes float1 {
                    0%{transform: translate(0, 0)}
                    50%{transform: translate(-10px, 0)}
                    100%{transform: translate(0, 0)}
                }

                .triangle-float1 {
                    animation: float1 5s infinite;
                }

                @keyframes float2 {
                    0%{transform: translate(0, 0)}
                    50%{transform: translate(-5px, -5px)}
                    100%{transform: translate(0, 0)}
                }

                .triangle-float2 {
                    animation: float2 4s infinite;
                }

                @keyframes float3 {
                    0%{transform: translate(0, 0)}
                    50%{transform: translate(0, -10px)}
                    100%{transform: translate(0, 0)}
                }

                .triangle-float3 {
                    animation: float3 6s infinite;
                }
            </style></defs></svg>