<svg width="916" height="187" viewBox="0 0 916 187" fill="none" xmlns="http://www.w3.org/2000/svg">
<path d="M168.438 183H0.502001L84.47 0.983994L168.438 183ZM15.35 173.528H153.59L84.47 23.512L15.35 173.528ZM204.594 182.744V4.56799H214.578L338.994 125.656V4.56799H348.466V182.744H204.594ZM463.47 186.84C450.499 186.84 438.467 183.597 427.374 177.112C416.451 170.627 407.747 161.923 401.262 151C394.777 139.907 391.534 127.875 391.534 114.904V4.82399H535.406V114.904C535.406 127.875 532.163 139.907 525.678 151C519.193 161.923 510.403 170.627 499.31 177.112C488.387 183.597 476.441 186.84 463.47 186.84ZM648.362 173.528V37.336C642.73 46.04 635.306 52.952 626.09 58.072C617.045 63.192 607.146 65.752 596.394 65.752V56.536C605.781 56.536 614.399 54.232 622.25 49.624C630.271 44.8453 636.586 38.5307 641.194 30.68C645.973 22.6587 648.362 13.9547 648.362 4.56799H657.578V173.528H711.338V183H594.602V173.528H648.362ZM842.47 0.983994C855.782 0.983994 868.07 4.31199 879.334 10.968C890.598 17.4533 899.473 26.328 905.958 37.592C912.614 48.856 915.942 61.144 915.942 74.456V113.368C915.942 126.68 912.614 138.968 905.958 150.232C899.473 161.496 890.598 170.456 879.334 177.112C868.07 183.597 855.782 186.84 842.47 186.84C829.158 186.84 816.87 183.597 805.606 177.112C794.342 170.456 785.382 161.496 778.726 150.232C772.241 138.968 768.998 126.68 768.998 113.368V74.456C768.998 61.144 772.241 48.856 778.726 37.592C785.382 26.328 794.342 17.4533 805.606 10.968C816.87 4.31199 829.158 0.983994 842.47 0.983994ZM778.47 113.368C778.47 124.973 781.286 135.725 786.918 145.624C792.721 155.352 800.486 163.117 810.214 168.92C820.113 174.552 830.865 177.368 842.47 177.368C854.075 177.368 864.742 174.552 874.47 168.92C884.369 163.117 892.134 155.352 897.766 145.624C903.569 135.725 906.47 124.973 906.47 113.368V74.456C906.47 62.8507 903.569 52.184 897.766 42.456C892.134 32.5573 884.369 24.792 874.47 19.16C864.742 13.3573 854.075 10.456 842.47 10.456C830.865 10.456 820.113 13.3573 810.214 19.16C800.486 24.792 792.721 32.5573 786.918 42.456C781.286 52.184 778.47 62.8507 778.47 74.456V113.368Z" fill="#EFEFEF"/>
</svg>
